<?xml version="1.0" encoding="iso-8859-1"?>
<!-- Generator: Adobe Illustrator 19.0.0, SVG Export Plug-In . SVG Version: 6.00 Build 0)  -->
<svg xmlns="http://www.w3.org/2000/svg" xmlns:xlink="http://www.w3.org/1999/xlink" version="1.1" id="Layer_1" x="0px" y="0px" viewBox="0 0 512 512" style="enable-background:new 0 0 512 512;" xml:space="preserve">
<path style="fill:#FF507D;" d="M418.036,8.439H93.964c-9.944,0-18.004,8.06-18.004,18.004v459.077  c0,13.694,14.681,22.375,26.681,15.775L256,416.948l153.36,84.348c11.999,6.6,26.681-2.082,26.681-15.775V26.443  C436.04,16.5,427.98,8.439,418.036,8.439z"/>
<path style="fill:#D23C69;" d="M147.976,8.439H93.964c-9.943,0-18.004,8.06-18.004,18.004v459.077  c0,13.694,14.681,22.375,26.681,15.776l45.335-24.934V8.439z"/>
<path d="M418.036,0H93.964C79.383,0,67.52,11.862,67.52,26.443v459.077c0,9.445,4.853,17.954,12.984,22.763  c8.132,4.807,17.926,4.96,26.203,0.408L256,426.581l149.293,82.111c4.015,2.208,8.385,3.308,12.751,3.308  c4.635,0,9.264-1.241,13.451-3.717c8.131-4.807,12.984-13.316,12.984-22.763V26.443C444.48,11.862,432.617,0,418.036,0z   M427.601,485.521c0,4.924-3.285,7.399-4.697,8.233c-1.411,0.835-5.16,2.522-9.478,0.147l-153.36-84.348  c-1.266-0.697-2.667-1.044-4.067-1.044s-2.801,0.349-4.067,1.044l-153.36,84.348c-4.315,2.374-8.066,0.688-9.478-0.147  c-1.412-0.835-4.697-3.308-4.697-8.233V26.443c0-5.274,4.291-9.565,9.565-9.565h324.073c5.274,0,9.565,4.291,9.565,9.565V485.521z"/>
<path d="M111.968,423.096c-4.661,0-8.439,3.779-8.439,8.439v18.003c0,4.661,3.779,8.439,8.439,8.439s8.439-3.779,8.439-8.439  v-18.003C120.407,426.875,116.63,423.096,111.968,423.096z"/>
<path d="M400.032,36.009c-4.661,0-8.439,3.779-8.439,8.439v18.003c0,4.661,3.779,8.439,8.439,8.439s8.439-3.779,8.439-8.439V44.449  C408.472,39.788,404.694,36.009,400.032,36.009z"/>
<path d="M111.968,36.008c-4.661,0-8.439,3.779-8.439,8.439v351.079c0,4.661,3.779,8.439,8.439,8.439s8.439-3.779,8.439-8.439V44.447  C120.407,39.787,116.63,36.008,111.968,36.008z"/>
<path d="M400.032,90.02c-4.661,0-8.439,3.779-8.439,8.439v351.079c0,4.661,3.779,8.439,8.439,8.439s8.439-3.779,8.439-8.439V98.46  C408.472,93.799,404.694,90.02,400.032,90.02z"/>
<g>
</g>
<g>
</g>
<g>
</g>
<g>
</g>
<g>
</g>
<g>
</g>
<g>
</g>
<g>
</g>
<g>
</g>
<g>
</g>
<g>
</g>
<g>
</g>
<g>
</g>
<g>
</g>
<g>
</g>
</svg>
